#N canvas 648 389 537 370 10;
#X obj 18 44 midi-input;
#X obj 214 45 r midiout;
#X obj 214 133 unpack f f;
#X obj 214 271 bendout;
#X floatatom 387 211 5 0 0 0 - - -, f 5;
#X obj 429 72 tgl 15 0 empty empty encoder 17 7 0 10 -262144 -1 -1
0 1;
#X obj 456 154 * 32;
#X obj 18 199 r midistrip;
#X floatatom 453 211 5 0 0 0 - - -, f 5;
#X obj 456 176 + 32;
#X obj 387 178 + 32;
#X floatatom 214 244 5 0 0 0 - - -, f 5;
#X floatatom 253 244 5 0 0 0 - - -, f 5;
#X obj 214 67 ctl2mcp;
#X obj 214 111 route bend ctl;
#X obj 284 133 unpack f f;
#X obj 364 316 pure-remote;
#X obj 253 220 + 16;
#X text 278 270 output on second port;
#X obj 387 241 ctlout 1 17;
#X obj 18 125 mcp2ctl;
#X obj 18 147 outlet;
#X obj 18 66 midifilter (>=17);
#X obj 18 221 mcpstrip;
#X obj 18 243 midi-output 2;
#X obj 18 176 bng 15 250 50 0 empty empty empty 17 7 0 10 -262144 -1
-1;
#X obj 358 133 s midistrip;
#X obj 358 72 tgl 15 0 empty empty unitname 17 7 0 10 -262144 -1 -1
0 1;
#X obj 429 101 t b f;
#X obj 18 88 t a a;
#X obj 119 114 route note;
#X msg 119 136 \$2 \$1;
#X obj 119 202 sel 54 55;
#X obj 119 158 route 127;
#X obj 119 204 tgl 15 0 empty empty empty 17 7 0 10 -262144 -1 -1 0
1;
#X obj 119 180 t f f;
#X obj 119 244 t f f;
#X obj 119 266 * 127;
#X obj 119 288 pack f f;
#X msg 119 310 note \$2 \$1 17;
#X obj 119 332 midi-output;
#X obj 159 224 tgl 15 0 empty empty empty 17 7 0 10 -262144 -1 -1 0
1;
#X obj 159 244 t f f;
#X text 58 9 F1: toggle unit name display (instance name when off \,
unit name when on \; F2: toggle encoder display (arc or single tick)
, f 73;
#X connect 0 0 22 0;
#X connect 1 0 13 0;
#X connect 2 0 11 0;
#X connect 2 1 17 0;
#X connect 4 0 19 0;
#X connect 5 0 28 0;
#X connect 6 0 9 0;
#X connect 7 0 23 0;
#X connect 8 0 19 1;
#X connect 9 0 10 1;
#X connect 10 0 4 0;
#X connect 11 0 3 0;
#X connect 12 0 3 1;
#X connect 13 0 14 0;
#X connect 14 0 2 0;
#X connect 14 1 15 0;
#X connect 15 0 10 0;
#X connect 15 1 8 0;
#X connect 17 0 12 0;
#X connect 20 0 21 0;
#X connect 22 0 29 0;
#X connect 23 0 24 0;
#X connect 25 0 23 0;
#X connect 27 0 26 0;
#X connect 28 0 13 0;
#X connect 28 1 6 0;
#X connect 29 0 20 0;
#X connect 29 1 30 0;
#X connect 30 0 31 0;
#X connect 31 0 33 0;
#X connect 32 0 34 0;
#X connect 32 1 41 0;
#X connect 33 0 35 0;
#X connect 34 0 36 0;
#X connect 35 0 32 0;
#X connect 35 1 38 1;
#X connect 36 0 37 0;
#X connect 36 1 27 0;
#X connect 37 0 38 0;
#X connect 38 0 39 0;
#X connect 39 0 40 0;
#X connect 41 0 42 0;
#X connect 42 0 37 0;
#X connect 42 1 5 0;
#X coords 0 -1 1 1 146 41 1 351 50;
