#N canvas 479 256 544 381 10;
#X obj 18 44 midi-input;
#X obj 214 45 r midiout;
#X obj 214 133 unpack f f;
#X obj 214 271 bendout;
#X floatatom 387 211 5 0 0 0 - - -, f 5;
#X obj 429 72 tgl 15 0 empty empty encoder 17 7 0 10 -262144 -1 -1
0 1;
#X obj 456 154 * 32;
#X obj 18 199 r midistrip;
#X floatatom 453 211 5 0 0 0 - - -, f 5;
#X obj 456 176 + 32;
#X obj 387 178 + 32;
#X floatatom 214 244 5 0 0 0 - - -, f 5;
#X floatatom 253 244 5 0 0 0 - - -, f 5;
#X obj 214 67 ctl2mcp;
#X obj 214 111 route bend ctl;
#X obj 284 133 unpack f f;
#X obj 364 316 pure-remote;
#X obj 253 220 + 16;
#X text 278 270 output on second port;
#X obj 387 241 ctlout 1 17;
#X obj 18 125 mcp2ctl;
#X obj 18 147 outlet;
#X obj 18 66 midifilter (>=17);
#X obj 18 221 mcpstrip;
#X obj 18 243 midi-output 2;
#X obj 18 176 bng 15 250 50 0 empty empty empty 17 7 0 10 -262144 -1
-1;
#X obj 358 133 s midistrip;
#X obj 358 72 tgl 15 0 empty empty unitname 17 7 0 10 -262144 -1 -1
0 1;
#X obj 429 101 t b f;
#X obj 18 88 t a a;
#X obj 119 114 route note;
#X msg 119 136 \$2 \$1;
#X obj 119 202 sel 54 55;
#X obj 119 158 route 127;
#X obj 119 223 tgl 15 0 empty empty empty 17 7 0 10 -262144 -1 -1 0
1;
#X obj 119 180 t f f;
#X obj 119 244 t f f;
#X obj 119 266 * 127;
#X obj 119 288 pack f f;
#X msg 119 310 note \$2 \$1 17;
#X obj 119 332 midi-output;
#X obj 159 224 tgl 15 0 empty empty empty 17 7 0 10 -262144 -1 -1 0
1;
#X obj 159 244 t f f;
#X text 58 9 F1: toggle unit name display (instance name when off \,
unit name when on \; F2: toggle encoder display (arc or single tick)
, f 73;
#N canvas 296 157 622 436 transport 1;
#X obj 92 62 tgl 15 0 empty empty empty 17 7 0 10 -262144 -1 -1 0 1
;
#X obj 92 82 t f f;
#X obj 16 12 inlet;
#X msg 141 103 rec \$1;
#X msg 16 61 1 0;
#X obj 16 83 t b a;
#X msg 16 105 stop;
#X obj 306 133 t b a;
#X msg 306 111 0 1;
#X obj 306 65 value play;
#X obj 306 87 sel 0 1;
#X msg 306 155 play 1;
#X obj 359 132 t b a;
#X msg 359 110 0 0;
#X msg 359 154 play 0;
#X obj 16 214 s transport;
#X obj 100 214 unpack f f;
#X obj 157 240 t f f;
#X obj 196 262 value play;
#X obj 157 262 * 127;
#X msg 157 288 note 94 \$1 17;
#X obj 66 262 * 127;
#X msg 66 288 note 93 \$1 17;
#X obj 92 104 * 127;
#X msg 92 126 note 95 \$1 17;
#X obj 92 315 midi-output;
#X obj 233 18 loadbang;
#X obj 233 40 t b b;
#X msg 233 62 1 0;
#X msg 263 62 0;
#X obj 192 62 tgl 15 0 empty empty empty 17 7 0 10 -262144 -1 -1 1
1;
#X obj 192 82 t f f;
#X obj 192 104 * 127;
#X msg 192 126 note 86 \$1 17;
#X msg 241 103 loop \$1;
#X obj 305 216 r transport-info;
#X obj 305 238 unpack f f;
#X floatatom 305 260 5 0 0 0 - - -, f 5;
#X floatatom 362 260 5 0 0 0 - - -, f 5;
#X obj 305 281 value pos;
#X obj 418 66 t b f;
#X obj 418 88 value pos;
#X obj 418 110 +;
#X floatatom 418 132 5 0 0 0 - - -, f 5;
#X msg 418 153 pos \$1;
#X msg 418 44 -0.05;
#X msg 463 44 0.05;
#X obj 507 42 ctlin 60 17;
#X obj 507 64 moses 64;
#X floatatom 507 86 5 0 0 0 - - -, f 5;
#X obj 552 86 - 64;
#X obj 552 108 * -1;
#X obj 529 133 * 0.002;
#X obj 16 39 sel 93 94 95 86 98 99 91 92;
#X msg 418 19 0;
#X msg 463 19 1;
#X text 201 317 play \, stop and rec work as usual \; rewind and
ffwd move to the beginning and end \; cursor left and right move
in larger \, the jog wheel in smaller increments;
#X obj 438 217 mcptime;
#X obj 438 239 midi-output 2;
#X connect 0 0 1 0;
#X connect 1 0 23 0;
#X connect 1 1 3 0;
#X connect 2 0 53 0;
#X connect 3 0 15 0;
#X connect 4 0 5 0;
#X connect 5 0 6 0;
#X connect 5 1 16 0;
#X connect 6 0 15 0;
#X connect 7 0 11 0;
#X connect 7 1 16 0;
#X connect 8 0 7 0;
#X connect 9 0 10 0;
#X connect 10 0 8 0;
#X connect 10 1 13 0;
#X connect 11 0 15 0;
#X connect 12 0 14 0;
#X connect 12 1 16 0;
#X connect 13 0 12 0;
#X connect 14 0 15 0;
#X connect 16 0 21 0;
#X connect 16 1 17 0;
#X connect 17 0 19 0;
#X connect 17 1 18 0;
#X connect 19 0 20 0;
#X connect 20 0 25 0;
#X connect 21 0 22 0;
#X connect 22 0 25 0;
#X connect 23 0 24 0;
#X connect 24 0 25 0;
#X connect 26 0 27 0;
#X connect 27 0 28 0;
#X connect 27 1 29 0;
#X connect 28 0 16 0;
#X connect 29 0 24 0;
#X connect 30 0 31 0;
#X connect 31 0 32 0;
#X connect 31 1 34 0;
#X connect 32 0 33 0;
#X connect 33 0 25 0;
#X connect 34 0 15 0;
#X connect 35 0 36 0;
#X connect 36 0 37 0;
#X connect 36 1 38 0;
#X connect 37 0 39 0;
#X connect 38 0 57 0;
#X connect 40 0 41 0;
#X connect 40 1 42 1;
#X connect 41 0 42 0;
#X connect 42 0 43 0;
#X connect 43 0 44 0;
#X connect 44 0 15 0;
#X connect 45 0 40 0;
#X connect 46 0 40 0;
#X connect 47 0 48 0;
#X connect 48 0 49 0;
#X connect 48 1 50 0;
#X connect 49 0 52 0;
#X connect 50 0 51 0;
#X connect 51 0 52 0;
#X connect 52 0 40 0;
#X connect 53 0 4 0;
#X connect 53 1 9 0;
#X connect 53 2 0 0;
#X connect 53 3 30 0;
#X connect 53 4 45 0;
#X connect 53 5 46 0;
#X connect 53 6 54 0;
#X connect 53 7 55 0;
#X connect 54 0 43 0;
#X connect 55 0 43 0;
#X connect 57 0 58 0;
#X restore 214 310 pd transport;
#X connect 0 0 22 0;
#X connect 1 0 13 0;
#X connect 2 0 11 0;
#X connect 2 1 17 0;
#X connect 4 0 19 0;
#X connect 5 0 28 0;
#X connect 6 0 9 0;
#X connect 7 0 23 0;
#X connect 8 0 19 1;
#X connect 9 0 10 1;
#X connect 10 0 4 0;
#X connect 11 0 3 0;
#X connect 12 0 3 1;
#X connect 13 0 14 0;
#X connect 14 0 2 0;
#X connect 14 1 15 0;
#X connect 15 0 10 0;
#X connect 15 1 8 0;
#X connect 17 0 12 0;
#X connect 20 0 21 0;
#X connect 22 0 29 0;
#X connect 23 0 24 0;
#X connect 25 0 23 0;
#X connect 27 0 26 0;
#X connect 28 0 13 0;
#X connect 28 1 6 0;
#X connect 29 0 20 0;
#X connect 29 1 30 0;
#X connect 30 0 31 0;
#X connect 31 0 33 0;
#X connect 32 0 34 0;
#X connect 32 1 41 0;
#X connect 32 2 44 0;
#X connect 33 0 35 0;
#X connect 34 0 36 0;
#X connect 35 0 32 0;
#X connect 35 1 38 1;
#X connect 36 0 37 0;
#X connect 36 1 27 0;
#X connect 37 0 38 0;
#X connect 38 0 39 0;
#X connect 39 0 40 0;
#X connect 41 0 42 0;
#X connect 42 0 37 0;
#X connect 42 1 5 0;
#X coords 0 -1 1 1 146 41 1 351 50;
