#N canvas 616 373 529 396 10;
#X obj 18 24 midi-input;
#X obj 224 25 r midiout;
#X obj 224 113 unpack f f;
#X obj 224 251 bendout;
#X floatatom 386 191 5 0 0 0 - - -, f 5;
#X obj 428 52 tgl 15 1 empty empty style 17 7 0 10 -262144 -1 -1 1
1;
#X obj 428 134 * 32;
#X obj 103 159 r midistrip;
#X floatatom 425 191 5 0 0 0 - - -, f 5;
#X obj 428 156 + 32;
#X obj 386 158 + 32;
#X floatatom 224 224 5 0 0 0 - - -, f 5;
#X floatatom 263 224 5 0 0 0 - - -, f 5;
#X obj 224 47 ctl2mcp;
#X obj 224 91 route bend ctl;
#X obj 294 113 unpack f f;
#X obj 364 296 pure-remote;
#X obj 263 200 + 16;
#X text 288 250 output on second port;
#X obj 386 221 ctlout 1 17;
#X msg 18 105 \$3 \$1 \$2;
#X obj 18 127 route 17;
#X obj 18 149 route 50;
#X obj 18 171 moses 1;
#X obj 18 76 route note;
#X obj 103 105 mcp2ctl;
#X obj 103 127 outlet;
#X obj 18 46 midifilter (>=17);
#X obj 103 181 mcpstrip;
#X obj 103 203 midi-output 2;
#X obj 380 52 bng 15 250 50 0 empty empty empty 17 7 0 10 -262144 -1
-1;
#X obj 380 92 s midistrip;
#X connect 0 0 27 0;
#X connect 1 0 13 0;
#X connect 2 0 11 0;
#X connect 2 1 17 0;
#X connect 4 0 19 0;
#X connect 5 0 6 0;
#X connect 6 0 9 0;
#X connect 7 0 28 0;
#X connect 8 0 19 1;
#X connect 9 0 10 1;
#X connect 10 0 4 0;
#X connect 11 0 3 0;
#X connect 12 0 3 1;
#X connect 13 0 14 0;
#X connect 14 0 2 0;
#X connect 14 1 15 0;
#X connect 15 0 10 0;
#X connect 15 1 8 0;
#X connect 17 0 12 0;
#X connect 20 0 21 0;
#X connect 21 0 22 0;
#X connect 22 0 23 0;
#X connect 24 0 20 0;
#X connect 24 1 25 0;
#X connect 25 0 26 0;
#X connect 27 0 24 0;
#X connect 28 0 29 0;
#X connect 30 0 31 0;
#X coords 0 -1 1 1 106 41 1 374 33;
