#N canvas 457 197 557 471 10;
#X obj 18 44 midi-input;
#X obj 216 45 r midiout;
#X obj 216 133 unpack f f;
#X obj 216 271 bendout;
#X floatatom 389 211 5 0 0 0 - - -, f 5;
#X obj 431 72 tgl 15 0 empty empty encoder 17 7 0 10 -262144 -1 -1
0 1;
#X obj 458 154 * 32;
#X obj 18 199 r midistrip;
#X floatatom 431 211 5 0 0 0 - - -, f 5;
#X obj 458 176 + 32;
#X obj 389 178 + 32;
#X floatatom 216 244 5 0 0 0 - - -, f 5;
#X floatatom 255 244 5 0 0 0 - - -, f 5;
#X obj 216 67 ctl2mcp;
#X obj 216 111 route bend ctl;
#X obj 286 133 unpack f f;
#X obj 13 405 pure-remote;
#X obj 255 220 + 16;
#X text 280 270 output on second port;
#X obj 18 125 mcp2ctl;
#X obj 18 147 outlet;
#X obj 18 221 mcpstrip;
#X obj 18 176 bng 15 250 50 0 empty empty empty 17 7 0 10 -262144 -1
-1;
#X obj 360 133 s midistrip;
#X obj 360 72 tgl 15 0 empty empty unitname 17 7 0 10 -262144 -1 -1
0 1;
#X obj 431 101 t b f;
#X obj 18 88 t a a;
#X obj 119 114 route note;
#X msg 119 136 \$2 \$1;
#X obj 119 158 route 127;
#X obj 119 223 tgl 15 0 empty empty empty 17 7 0 10 -262144 -1 -1 0
1;
#X obj 119 180 t f f;
#X obj 119 244 t f f;
#X obj 119 266 * 127;
#X obj 119 332 midi-output;
#X obj 159 224 tgl 15 0 empty empty empty 17 7 0 10 -262144 -1 -1 0
1;
#X obj 159 244 t f f;
#N canvas 296 157 622 436 transport 0;
#X obj 92 62 tgl 15 0 empty empty empty 17 7 0 10 -262144 -1 -1 0 1
;
#X obj 92 82 t f f;
#X obj 16 12 inlet;
#X msg 141 103 rec \$1;
#X msg 16 61 1 0;
#X obj 16 83 t b a;
#X msg 16 105 stop;
#X obj 306 133 t b a;
#X msg 306 111 0 1;
#X obj 306 65 value play;
#X obj 306 87 sel 0 1;
#X msg 306 155 play 1;
#X obj 359 132 t b a;
#X msg 359 110 0 0;
#X msg 359 154 play 0;
#X obj 16 214 s transport;
#X obj 100 214 unpack f f;
#X obj 157 240 t f f;
#X obj 196 262 value play;
#X obj 157 262 * 127;
#X obj 66 262 * 127;
#X obj 92 104 * 127;
#X obj 92 345 midi-output;
#X obj 233 18 loadbang;
#X obj 233 40 t b b;
#X msg 233 62 1 0;
#X msg 263 62 0;
#X obj 192 62 tgl 15 0 empty empty empty 17 7 0 10 -262144 -1 -1 0
1;
#X obj 192 82 t f f;
#X obj 192 104 * 127;
#X msg 241 103 loop \$1;
#X obj 305 216 r transport-info;
#X obj 305 238 unpack f f;
#X floatatom 305 260 5 0 0 0 - - -, f 5;
#X floatatom 362 260 5 0 0 0 - - -, f 5;
#X obj 305 281 value pos;
#X obj 418 66 t b f;
#X obj 418 88 value pos;
#X obj 418 110 +;
#X floatatom 418 132 5 0 0 0 - - -, f 5;
#X msg 418 153 pos \$1;
#X msg 418 44 -0.05;
#X msg 463 44 0.05;
#X obj 507 114 moses 64;
#X floatatom 507 136 5 0 0 0 - - -, f 5;
#X obj 552 136 - 64;
#X obj 552 158 * -1;
#X obj 529 183 * 0.002;
#X obj 16 39 sel 93 94 95 86 98 99 91 92;
#X msg 418 19 0;
#X msg 463 19 1;
#X obj 438 217 mcptime;
#X obj 507 44 pack f f;
#X obj 507 22 ctlin 60;
#X obj 507 66 midifilter \$1;
#X obj 507 88 unpack f;
#X obj 438 239 midi-output \$1;
#X obj 66 284 pack f f;
#X obj 157 284 pack f f;
#X msg 66 318 note 93 \$1 \$2;
#X msg 157 318 note 94 \$1 \$2;
#X obj 92 131 pack f f;
#X obj 192 131 pack f f;
#X msg 92 156 note 95 \$1 \$2;
#X msg 192 157 note 86 \$1 \$2;
#X obj 144 13 r \$0-chan;
#X connect 0 0 1 0;
#X connect 1 0 21 0;
#X connect 1 1 3 0;
#X connect 2 0 48 0;
#X connect 3 0 15 0;
#X connect 4 0 5 0;
#X connect 5 0 6 0;
#X connect 5 1 16 0;
#X connect 6 0 15 0;
#X connect 7 0 11 0;
#X connect 7 1 16 0;
#X connect 8 0 7 0;
#X connect 9 0 10 0;
#X connect 10 0 8 0;
#X connect 10 1 13 0;
#X connect 11 0 15 0;
#X connect 12 0 14 0;
#X connect 12 1 16 0;
#X connect 13 0 12 0;
#X connect 14 0 15 0;
#X connect 16 0 20 0;
#X connect 16 1 17 0;
#X connect 17 0 19 0;
#X connect 17 1 18 0;
#X connect 19 0 58 0;
#X connect 20 0 57 0;
#X connect 21 0 61 0;
#X connect 23 0 24 0;
#X connect 24 0 25 0;
#X connect 24 1 26 0;
#X connect 25 0 16 0;
#X connect 26 0 61 0;
#X connect 26 0 62 1;
#X connect 27 0 28 0;
#X connect 28 0 29 0;
#X connect 28 1 30 0;
#X connect 29 0 62 0;
#X connect 30 0 15 0;
#X connect 31 0 32 0;
#X connect 32 0 33 0;
#X connect 32 1 34 0;
#X connect 33 0 35 0;
#X connect 34 0 51 0;
#X connect 36 0 37 0;
#X connect 36 1 38 1;
#X connect 37 0 38 0;
#X connect 38 0 39 0;
#X connect 39 0 40 0;
#X connect 40 0 15 0;
#X connect 41 0 36 0;
#X connect 42 0 36 0;
#X connect 43 0 44 0;
#X connect 43 1 45 0;
#X connect 44 0 47 0;
#X connect 45 0 46 0;
#X connect 46 0 47 0;
#X connect 47 0 36 0;
#X connect 48 0 4 0;
#X connect 48 1 9 0;
#X connect 48 2 0 0;
#X connect 48 3 27 0;
#X connect 48 4 41 0;
#X connect 48 5 42 0;
#X connect 48 6 49 0;
#X connect 48 7 50 0;
#X connect 49 0 39 0;
#X connect 50 0 39 0;
#X connect 51 0 56 0;
#X connect 52 0 54 0;
#X connect 53 0 52 0;
#X connect 53 1 52 1;
#X connect 54 0 55 0;
#X connect 55 0 43 0;
#X connect 57 0 59 0;
#X connect 58 0 60 0;
#X connect 59 0 22 0;
#X connect 60 0 22 0;
#X connect 61 0 63 0;
#X connect 62 0 64 0;
#X connect 63 0 22 0;
#X connect 64 0 22 0;
#X connect 65 0 61 1;
#X connect 65 0 62 1;
#X connect 65 0 57 1;
#X connect 65 0 58 1;
#X restore 214 310 pd transport;
#X obj 17 276 loadbang;
#X msg 17 298 write \, write 1 \; pd dsp 1;
#X obj 272 334 r reload;
#X msg 291 390 reload;
#X obj 291 412 s midistrip;
#X obj 431 52 bng 15 250 50 0 empty empty reset 17 7 0 10 -262144 -1
-1;
#X obj 146 412 s faustdsp;
#X obj 119 202 sel 54 55 56;
#X obj 272 356 t b b b;
#X msg 341 390 write 0;
#X msg 146 390 write \, write 1;
#X obj 146 367 delay 1000;
#X obj 332 356 t b b b;
#X obj 18 66 midifilter \$1;
#X obj 389 241 ctlout;
#X obj 135 44 r \$0-chan;
#X obj 119 288 pack f f f;
#X obj 18 243 midi-output \$1;
#X msg 119 310 note \$2 \$1 \$3;
#X obj 440 276 loadbang;
#X obj 440 298 f \$1;
#X obj 440 320 max 1;
#X obj 440 342 - 1;
#X obj 440 364 * 16;
#X obj 440 386 + 1;
#X obj 440 408 s \$0-chan;
#X connect 0 0 51 0;
#X connect 1 0 13 0;
#X connect 2 0 11 0;
#X connect 2 1 17 0;
#X connect 4 0 52 0;
#X connect 5 0 25 0;
#X connect 6 0 9 0;
#X connect 7 0 21 0;
#X connect 8 0 52 1;
#X connect 9 0 10 1;
#X connect 10 0 4 0;
#X connect 11 0 3 0;
#X connect 12 0 3 1;
#X connect 13 0 14 0;
#X connect 14 0 2 0;
#X connect 14 1 15 0;
#X connect 15 0 10 0;
#X connect 15 1 8 0;
#X connect 17 0 12 0;
#X connect 19 0 20 0;
#X connect 21 0 55 0;
#X connect 22 0 21 0;
#X connect 24 0 23 0;
#X connect 25 0 13 0;
#X connect 25 1 6 0;
#X connect 26 0 19 0;
#X connect 26 1 27 0;
#X connect 27 0 28 0;
#X connect 28 0 29 0;
#X connect 29 0 31 0;
#X connect 30 0 32 0;
#X connect 31 0 45 0;
#X connect 31 1 54 1;
#X connect 32 0 33 0;
#X connect 32 1 24 0;
#X connect 33 0 54 0;
#X connect 35 0 36 0;
#X connect 36 0 33 0;
#X connect 36 1 5 0;
#X connect 38 0 39 0;
#X connect 39 0 44 0;
#X connect 40 0 46 0;
#X connect 41 0 42 0;
#X connect 43 0 50 0;
#X connect 45 0 30 0;
#X connect 45 1 35 0;
#X connect 45 2 43 0;
#X connect 45 3 37 0;
#X connect 46 0 49 0;
#X connect 46 1 41 0;
#X connect 46 2 47 0;
#X connect 47 0 44 0;
#X connect 48 0 44 0;
#X connect 49 0 48 0;
#X connect 50 0 48 0;
#X connect 50 1 41 0;
#X connect 50 2 47 0;
#X connect 51 0 26 0;
#X connect 53 0 52 2;
#X connect 53 0 54 2;
#X connect 54 0 56 0;
#X connect 56 0 34 0;
#X connect 57 0 58 0;
#X connect 58 0 59 0;
#X connect 59 0 60 0;
#X connect 60 0 61 0;
#X connect 61 0 62 0;
#X connect 62 0 63 0;
#X coords 0 -1 1 1 139 41 1 355 50;
