#N canvas 336 259 715 446 10;
#X obj 134 305 dac~;
#N canvas 852 209 450 300 synth 0;
#X obj 10 30 hsl 128 15 0 1 0 0 synth:subtractive/attack synth:subtractive/attack
attack -2 -6 0 10 -262144 -1 -1 127 1;
#X obj 160 30 nbx 5 14 0 1 0 0 synth:subtractive/attack synth:subtractive/attack
empty 0 -6 0 10 -262144 -1 -1 0.01 256 0;
#X obj 10 60 hsl 128 15 0 1 0 0 synth:subtractive/decay synth:subtractive/decay
decay -2 -6 0 10 -262144 -1 -1 3810 1;
#X obj 160 60 nbx 5 14 0 1 0 0 synth:subtractive/decay synth:subtractive/decay
empty 0 -6 0 10 -262144 -1 -1 0.3 256 0;
#X obj 10 90 hsl 128 15 0 1 0 0 synth:subtractive/sustain synth:subtractive/sustain
sustain -2 -6 0 10 -262144 -1 -1 6350 1;
#X obj 160 90 nbx 5 14 0 1 0 0 synth:subtractive/sustain synth:subtractive/sustain
empty 0 -6 0 10 -262144 -1 -1 0.5 256 0;
#X obj 10 120 hsl 128 15 0 1 0 0 synth:subtractive/release synth:subtractive/release
release -2 -6 0 10 -262144 -1 -1 2540 1;
#X obj 160 120 nbx 5 14 0 1 0 0 synth:subtractive/release synth:subtractive/release
empty 0 -6 0 10 -262144 -1 -1 0.2 256 0;
#X obj 10 150 hsl 128 15 0 20 0 0 synth:subtractive/resonance-dB synth:subtractive/resonance-dB
resonance-dB -2 -6 0 10 -262144 -1 -1 1905 1;
#X obj 160 150 nbx 5 14 0 20 0 0 synth:subtractive/resonance-dB synth:subtractive/resonance-dB
empty 0 -6 0 10 -262144 -1 -1 3 256 0;
#X obj 10 180 hsl 128 15 1 20 0 0 synth:subtractive/cutoff-harmonic
synth:subtractive/cutoff-harmonic cutoff-harmonic -2 -6 0 10 -262144
-1 -1 3342 1;
#X obj 160 180 nbx 5 14 1 20 0 0 synth:subtractive/cutoff-harmonic
synth:subtractive/cutoff-harmonic empty 0 -6 0 10 -262144 -1 -1 6 256
0;
#X obj 10 210 hsl 128 15 0 1 0 0 synth:subtractive/vol synth:subtractive/vol
vol -2 -6 0 10 -262144 -1 -1 3810 1;
#X obj 160 210 nbx 5 14 0 1 0 0 synth:subtractive/vol synth:subtractive/vol
empty 0 -6 0 10 -262144 -1 -1 0.3 256 0;
#X obj 10 240 hsl 128 15 0 1 0 0 synth:subtractive/pan synth:subtractive/pan
pan -2 -6 0 10 -262144 -1 -1 6350 1;
#X obj 160 240 nbx 5 14 0 1 0 0 synth:subtractive/pan synth:subtractive/pan
empty 0 -6 0 10 -262144 -1 -1 0.5 256 0;
#X obj 177 3 tgl 15 1 synth:record synth:record empty 0 -6 0 10 -233017
-1 -1 0 1;
#X obj 197 3 bng 15 250 50 1 synth:init synth:init empty 0 -6 0 10
-262144 -1 -1;
#X obj 217 3 tgl 15 1 synth:active synth:active empty 0 -6 0 10 -262144
-1 -1 1 1;
#X coords 0 -1 1 1 235 270 1 0 0;
#X restore 196 18 pd synth;
#X obj 14 64 hsl 128 15 0 1 0 0 empty empty empty -2 -8 0 10 -262144
-1 -1 0 1;
#X obj 14 41 / 127;
#X obj 14 332 loadbang;
#X obj 14 406 faust-remote;
#X obj 14 229 faust~ subtractive synth;
#X obj 14 305 print controls;
#X msg 14 86 /synth:subtractive/pan \$1;
#N canvas 0 0 450 300 fx1 0;
#X obj 10 30 hsl 128 15 0 0.2 0 0 fx1:chorus/delay fx1:chorus/delay
delay -2 -6 0 10 -262144 -1 -1 1587 1;
#X obj 160 30 nbx 5 14 0 0.2 0 0 fx1:chorus/delay fx1:chorus/delay
empty 0 -6 0 10 -262144 -1 -1 0.025 256 0;
#X obj 10 60 hsl 128 15 0 1 0 0 fx1:chorus/depth fx1:chorus/depth depth
-2 -6 0 10 -262144 -1 -1 254 1;
#X obj 160 60 nbx 5 14 0 1 0 0 fx1:chorus/depth fx1:chorus/depth empty
0 -6 0 10 -262144 -1 -1 0.02 256 0;
#X obj 10 90 hsl 128 15 0 10 0 0 fx1:chorus/freq fx1:chorus/freq freq
-2 -6 0 10 -262144 -1 -1 3810 1;
#X obj 160 90 nbx 5 14 0 10 0 0 fx1:chorus/freq fx1:chorus/freq empty
0 -6 0 10 -262144 -1 -1 3 256 0;
#X obj 10 120 hsl 128 15 0 1 0 0 fx1:chorus/level fx1:chorus/level
level -2 -6 0 10 -262144 -1 -1 6350 1;
#X obj 160 120 nbx 5 14 0 1 0 0 fx1:chorus/level fx1:chorus/level empty
0 -6 0 10 -262144 -1 -1 0.5 256 0;
#X obj 177 3 tgl 15 1 fx1:record fx1:record empty 0 -6 0 10 -233017
-1 -1 0 1;
#X obj 197 3 bng 15 250 50 1 fx1:init fx1:init empty 0 -6 0 10 -262144
-1 -1;
#X obj 217 3 tgl 15 1 fx1:active fx1:active empty 0 -6 0 10 -262144
-1 -1 1 1;
#X coords 0 -1 1 1 235 150 1 0 0;
#X restore 442 18 pd fx1;
#N canvas 0 0 450 300 fx2 0;
#X obj 10 30 hsl 128 15 0 1 0 0 fx2:freeverb/damp fx2:freeverb/damp
damp -2 -6 0 10 -262144 -1 -1 6350 1;
#X obj 160 30 nbx 5 14 0 1 0 0 fx2:freeverb/damp fx2:freeverb/damp
empty 0 -6 0 10 -262144 -1 -1 0.5 256 0;
#X obj 10 60 hsl 128 15 0 1 0 0 fx2:freeverb/room-size fx2:freeverb/room-size
room-size -2 -6 0 10 -262144 -1 -1 6350 1;
#X obj 160 60 nbx 5 14 0 1 0 0 fx2:freeverb/room-size fx2:freeverb/room-size
empty 0 -6 0 10 -262144 -1 -1 0.5 256 0;
#X obj 10 90 hsl 128 15 0 1 0 0 fx2:freeverb/stereo-spread fx2:freeverb/stereo-spread
stereo-spread -2 -6 0 10 -262144 -1 -1 6350 1;
#X obj 160 90 nbx 5 14 0 1 0 0 fx2:freeverb/stereo-spread fx2:freeverb/stereo-spread
empty 0 -6 0 10 -262144 -1 -1 0.5 256 0;
#X obj 10 120 hsl 128 15 0 1 0 0 fx2:freeverb/wet fx2:freeverb/wet
wet -2 -6 0 10 -262144 -1 -1 4233 1;
#X obj 160 120 nbx 5 14 0 1 0 0 fx2:freeverb/wet fx2:freeverb/wet empty
0 -6 0 10 -262144 -1 -1 0.3333 256 0;
#X obj 177 3 tgl 15 1 fx2:record fx2:record empty 0 -6 0 10 -233017
-1 -1 0 1;
#X obj 197 3 bng 15 250 50 1 fx2:init fx2:init empty 0 -6 0 10 -262144
-1 -1;
#X obj 217 3 tgl 15 1 fx2:active fx2:active empty 0 -6 0 10 -262144
-1 -1 1 1;
#X coords 0 -1 1 1 235 150 1 0 0;
#X restore 442 174 pd fx2;
#X obj 14 252 faust~ chorus fx1, f 24;
#X obj 14 276 faust~ freeverb fx2, f 24;
#X obj 196 332 mcp 2;
#X obj 196 408 s faustdsp;
#X obj 77 134 midifilter 1;
#X obj 14 18 ctlin 8 1;
#X msg 14 354 write \, write 1 \; pd dsp 1;
#X obj 77 156 t a a;
#X obj 77 178 s faustdsp;
#X obj 104 200 s midiout;
#X obj 48 157 bng 15 250 50 0 empty empty empty 17 7 0 10 -262144 -1
-1;
#X obj 77 112 mcp/midi-input;
#X connect 2 0 8 0;
#X connect 3 0 2 0;
#X connect 4 0 17 0;
#X connect 6 0 7 0;
#X connect 6 1 11 1;
#X connect 6 2 11 2;
#X connect 8 0 6 0;
#X connect 11 0 7 0;
#X connect 11 1 12 1;
#X connect 11 2 12 2;
#X connect 12 0 7 0;
#X connect 12 1 0 0;
#X connect 12 2 0 1;
#X connect 13 0 14 0;
#X connect 15 0 18 0;
#X connect 16 0 3 0;
#X connect 17 0 14 0;
#X connect 18 0 19 0;
#X connect 18 1 20 0;
#X connect 21 0 19 0;
#X connect 22 0 15 0;
