#N canvas 512 217 593 549 10;
#X obj 18 94 midi-input;
#X obj 300 95 r midiout;
#X obj 300 183 unpack f f;
#X obj 300 321 bendout;
#X floatatom 473 261 5 0 0 0 - - -, f 5;
#X obj 372 26 tgl 15 0 empty empty encoder 17 7 0 10 -262144 -1 -1
0 1;
#X obj 542 204 * 32;
#X obj 18 249 r midistrip;
#X floatatom 515 261 5 0 0 0 - - -, f 5;
#X obj 542 226 + 32;
#X obj 473 228 + 32;
#X floatatom 300 294 5 0 0 0 - - -, f 5;
#X floatatom 339 294 5 0 0 0 - - -, f 5;
#X obj 300 117 ctl2mcp;
#X obj 370 183 unpack f f;
#X obj 339 270 + 16;
#X text 354 314 output on second port;
#X obj 18 175 mcp2ctl;
#X obj 18 197 outlet;
#X obj 18 271 mcpstrip;
#X obj 18 226 bng 15 250 50 0 empty empty empty 17 7 0 10 -262144 -1
-1;
#X obj 444 183 s midistrip;
#X obj 291 26 tgl 15 0 empty empty dspname 17 7 0 10 -262144 -1 -1
0 1;
#X obj 515 151 t b f;
#X obj 18 138 t a a;
#X obj 203 164 route note;
#X msg 203 186 \$2 \$1;
#X obj 203 208 route 127;
#X obj 203 273 tgl 15 0 empty empty empty 17 7 0 10 -262144 -1 -1 0
1;
#X obj 203 230 t f f;
#X obj 203 294 t f f;
#X obj 203 316 * 127;
#X obj 203 382 midi-output;
#X obj 243 274 tgl 15 0 empty empty empty 17 7 0 10 -262144 -1 -1 0
1;
#X obj 243 294 t f f;
#N canvas 588 220 624 460 transport 0;
#X obj 92 62 tgl 15 0 empty empty empty 17 7 0 10 -262144 -1 -1 0 1
;
#X obj 92 82 t f f;
#X obj 16 12 inlet;
#X msg 141 103 rec \$1;
#X msg 16 61 1 0;
#X obj 16 83 t b a;
#X msg 16 105 stop;
#X obj 306 133 t b a;
#X msg 306 111 0 1;
#X obj 306 65 value play;
#X obj 306 87 sel 0 1;
#X msg 306 155 play 1;
#X obj 359 132 t b a;
#X msg 359 110 0 0;
#X msg 359 154 play 0;
#X obj 16 214 s transport;
#X obj 100 214 unpack f f;
#X obj 157 240 t f f;
#X obj 196 262 value play;
#X obj 157 262 * 127;
#X obj 66 262 * 127;
#X obj 92 104 * 127;
#X obj 92 345 midi-output;
#X obj 233 18 loadbang;
#X obj 233 40 t b b;
#X msg 233 62 1 0;
#X msg 263 62 0;
#X obj 192 62 tgl 15 0 empty empty empty 17 7 0 10 -262144 -1 -1 0
1;
#X obj 192 82 t f f;
#X obj 192 104 * 127;
#X msg 241 103 loop \$1;
#X obj 375 216 r transport-info;
#X obj 375 238 unpack f f;
#X floatatom 375 260 5 0 0 0 - - -, f 5;
#X floatatom 432 260 5 0 0 0 - - -, f 5;
#X obj 375 281 value pos;
#X obj 418 66 t b f;
#X obj 418 88 value pos;
#X obj 418 110 +;
#X floatatom 418 132 5 0 0 0 - - -, f 5;
#X msg 418 153 pos \$1;
#X msg 418 44 -0.05;
#X msg 463 44 0.05;
#X obj 507 114 moses 64;
#X floatatom 507 136 5 0 0 0 - - -, f 5;
#X obj 552 136 - 64;
#X obj 552 158 * -1;
#X obj 529 183 * 0.002;
#X obj 16 39 sel 93 94 95 86 98 99 91 92;
#X msg 418 19 0;
#X msg 463 19 1;
#X obj 507 44 pack f f;
#X obj 507 22 ctlin 60;
#X obj 507 66 midifilter \$1;
#X obj 507 88 unpack f;
#X obj 508 239 midi-output \$1;
#X obj 66 284 pack f f;
#X obj 157 284 pack f f;
#X msg 66 318 note 93 \$1 \$2;
#X msg 157 318 note 94 \$1 \$2;
#X obj 92 131 pack f f;
#X obj 192 131 pack f f;
#X msg 92 156 note 95 \$1 \$2;
#X msg 192 157 note 86 \$1 \$2;
#X obj 144 13 r \$0-chan;
#X obj 274 216 route 57 58 59;
#X msg 274 238 save;
#X msg 301 260 abort;
#X msg 328 238 clear;
#X obj 274 290 s transport;
#X obj 508 217 mcptime \$1;
#X connect 0 0 1 0;
#X connect 1 0 21 0;
#X connect 1 1 3 0;
#X connect 2 0 48 0;
#X connect 3 0 15 0;
#X connect 4 0 5 0;
#X connect 5 0 6 0;
#X connect 5 1 16 0;
#X connect 6 0 15 0;
#X connect 7 0 11 0;
#X connect 7 1 16 0;
#X connect 8 0 7 0;
#X connect 9 0 10 0;
#X connect 10 0 8 0;
#X connect 10 1 13 0;
#X connect 11 0 15 0;
#X connect 12 0 14 0;
#X connect 12 1 16 0;
#X connect 13 0 12 0;
#X connect 14 0 15 0;
#X connect 16 0 20 0;
#X connect 16 1 17 0;
#X connect 17 0 19 0;
#X connect 17 1 18 0;
#X connect 19 0 57 0;
#X connect 20 0 56 0;
#X connect 21 0 60 0;
#X connect 23 0 24 0;
#X connect 24 0 25 0;
#X connect 24 1 26 0;
#X connect 25 0 16 0;
#X connect 26 0 60 0;
#X connect 26 0 61 1;
#X connect 27 0 28 0;
#X connect 28 0 29 0;
#X connect 28 1 30 0;
#X connect 29 0 61 0;
#X connect 30 0 15 0;
#X connect 31 0 32 0;
#X connect 32 0 33 0;
#X connect 32 1 34 0;
#X connect 33 0 35 0;
#X connect 34 0 70 0;
#X connect 36 0 37 0;
#X connect 36 1 38 1;
#X connect 37 0 38 0;
#X connect 38 0 39 0;
#X connect 39 0 40 0;
#X connect 40 0 15 0;
#X connect 41 0 36 0;
#X connect 42 0 36 0;
#X connect 43 0 44 0;
#X connect 43 1 45 0;
#X connect 44 0 47 0;
#X connect 45 0 46 0;
#X connect 46 0 47 0;
#X connect 47 0 36 0;
#X connect 48 0 4 0;
#X connect 48 1 9 0;
#X connect 48 2 0 0;
#X connect 48 3 27 0;
#X connect 48 4 41 0;
#X connect 48 5 42 0;
#X connect 48 6 49 0;
#X connect 48 7 50 0;
#X connect 48 8 65 0;
#X connect 49 0 39 0;
#X connect 50 0 39 0;
#X connect 51 0 53 0;
#X connect 52 0 51 0;
#X connect 52 1 51 1;
#X connect 53 0 54 0;
#X connect 54 0 43 0;
#X connect 56 0 58 0;
#X connect 57 0 59 0;
#X connect 58 0 22 0;
#X connect 59 0 22 0;
#X connect 60 0 62 0;
#X connect 61 0 63 0;
#X connect 62 0 22 0;
#X connect 63 0 22 0;
#X connect 64 0 60 1;
#X connect 64 0 61 1;
#X connect 64 0 56 1;
#X connect 64 0 57 1;
#X connect 65 0 66 0;
#X connect 65 1 67 0;
#X connect 65 2 68 0;
#X connect 66 0 69 0;
#X connect 67 0 69 0;
#X connect 68 0 69 0;
#X connect 70 0 55 0;
#X restore 298 360 pd transport;
#X obj 17 346 loadbang;
#X msg 17 438 write \, write 1 \; pd dsp 1;
#X obj 356 384 r reload;
#X msg 375 440 reload;
#X obj 375 462 s midistrip;
#X obj 453 26 bng 15 250 50 0 empty empty empty 17 7 0 10 -262144 -1
-1;
#X obj 230 482 s faustdsp;
#X obj 203 252 sel 54 55 56;
#X obj 356 406 t b b b;
#X msg 425 440 write 0;
#X msg 230 460 write \, write 1;
#X obj 230 417 delay 1000;
#X obj 416 406 t b b b;
#X obj 18 116 midifilter \$1;
#X obj 473 291 ctlout;
#X obj 219 94 r \$0-chan;
#X obj 203 338 pack f f f;
#X msg 203 360 note \$2 \$1 \$3;
#X obj 524 326 loadbang;
#X obj 524 348 f \$1;
#X obj 524 370 max 1;
#X obj 524 392 - 1;
#X obj 524 414 * 16;
#X obj 524 458 + 1;
#X obj 524 480 s \$0-chan;
#X symbolatom 20 47 8 0 0 0 - stripu1 -, f 8;
#X symbolatom 77 47 8 0 0 0 - stripu2 -, f 8;
#X symbolatom 134 47 8 0 0 0 - stripu3 -, f 8;
#X symbolatom 191 47 8 0 0 0 - stripu4 -, f 8;
#X symbolatom 248 47 8 0 0 0 - stripu5 -, f 8;
#X symbolatom 305 47 8 0 0 0 - stripu6 -, f 8;
#X symbolatom 362 47 8 0 0 0 - stripu7 -, f 8;
#X symbolatom 419 47 8 0 0 0 - stripu8 -, f 8;
#X symbolatom 20 67 8 0 0 0 - stripl1 -, f 8;
#X symbolatom 77 67 8 0 0 0 - stripl2 -, f 8;
#X symbolatom 134 67 8 0 0 0 - stripl3 -, f 8;
#X symbolatom 191 67 8 0 0 0 - stripl4 -, f 8;
#X symbolatom 248 67 8 0 0 0 - stripl5 -, f 8;
#X symbolatom 305 67 8 0 0 0 - stripl6 -, f 8;
#X symbolatom 362 67 8 0 0 0 - stripl7 -, f 8;
#X symbolatom 419 67 8 0 0 0 - stripl8 -, f 8;
#X obj 17 368 t b b;
#N canvas 960 275 450 324 stripinit 0;
#X msg 14 73 \; stripu1 symbol \; stripu2 symbol \; stripu3 symbol
\; stripu4 symbol \; stripu5 symbol \; stripu6 symbol \; stripu7 symbol
\; stripu8 symbol;
#X obj 14 50 t b b;
#X msg 124 73 \; stripl1 symbol \; stripl2 symbol \; stripl3 symbol
\; stripl4 symbol \; stripl5 symbol \; stripl6 symbol \; stripl7 symbol
\; stripl8 symbol;
#X obj 14 27 inlet;
#X connect 1 0 0 0;
#X connect 1 1 2 0;
#X connect 3 0 1 0;
#X restore 33 402 pd stripinit;
#X obj 66 368 bng 15 250 50 0 empty empty empty 17 7 0 10 -262144 -1
-1;
#X obj 300 161 route bend ctl touch;
#X obj 378 232 unpack f f;
#X floatatom 378 254 5 0 0 0 - - -, f 5;
#X obj 435 257 + 16;
#X floatatom 435 279 5 0 0 0 - - -, f 5;
#X obj 378 275 touchout;
#X obj 424 336 r faust-notify;
#X obj 424 358 t b;
#X obj 424 380 del 100;
#X obj 524 436 t f f;
#X obj 230 439 t b b;
#X msg 317 439 clear;
#X obj 144 26 bng 15 250 50 0 empty empty < 17 7 0 10 -88634 -1 -1
;
#X obj 184 26 bng 15 250 50 0 empty empty > 17 7 0 10 -88634 -1 -1
;
#X msg 194 116 46;
#X msg 224 116 47;
#X msg 194 138 note \$1 127 1;
#X msg 254 116 32;
#X obj 446 104 r midistrip;
#X obj 227 26 tgl 15 0 empty empty value 17 7 0 10 -262144 -1 -1 0
1;
#X obj 415 105 t b;
#X obj 446 126 route view;
#X msg 446 148 set \$2;
#X obj 18 315 midi-output \$1;
#X obj 18 293 route bend ctl touch note;
#X obj 113 352 noteout;
#X obj 113 330 unpack f f;
#X connect 0 0 49 0;
#X connect 1 0 13 0;
#X connect 2 0 11 0;
#X connect 2 1 15 0;
#X connect 4 0 50 0;
#X connect 5 0 23 0;
#X connect 6 0 9 0;
#X connect 7 0 19 0;
#X connect 8 0 50 1;
#X connect 9 0 10 1;
#X connect 10 0 4 0;
#X connect 11 0 3 0;
#X connect 12 0 3 1;
#X connect 13 0 80 0;
#X connect 14 0 10 0;
#X connect 14 1 8 0;
#X connect 15 0 12 0;
#X connect 17 0 18 0;
#X connect 19 0 104 0;
#X connect 20 0 19 0;
#X connect 22 0 21 0;
#X connect 23 0 13 0;
#X connect 23 1 6 0;
#X connect 24 0 17 0;
#X connect 24 1 25 0;
#X connect 25 0 26 0;
#X connect 26 0 27 0;
#X connect 27 0 29 0;
#X connect 28 0 30 0;
#X connect 29 0 43 0;
#X connect 29 1 52 1;
#X connect 30 0 31 0;
#X connect 30 1 22 0;
#X connect 31 0 52 0;
#X connect 33 0 34 0;
#X connect 34 0 31 0;
#X connect 34 1 5 0;
#X connect 36 0 77 0;
#X connect 37 0 42 0;
#X connect 38 0 44 0;
#X connect 39 0 40 0;
#X connect 41 0 48 0;
#X connect 43 0 28 0;
#X connect 43 1 33 0;
#X connect 43 2 41 0;
#X connect 43 3 35 0;
#X connect 44 0 47 0;
#X connect 44 1 39 0;
#X connect 44 2 45 0;
#X connect 45 0 42 0;
#X connect 46 0 42 0;
#X connect 47 0 90 0;
#X connect 48 0 90 0;
#X connect 48 1 39 0;
#X connect 48 2 45 0;
#X connect 49 0 24 0;
#X connect 51 0 50 2;
#X connect 51 0 52 2;
#X connect 51 0 105 2;
#X connect 52 0 53 0;
#X connect 53 0 32 0;
#X connect 54 0 55 0;
#X connect 55 0 56 0;
#X connect 56 0 57 0;
#X connect 57 0 58 0;
#X connect 58 0 89 0;
#X connect 59 0 60 0;
#X connect 77 0 37 0;
#X connect 77 1 78 0;
#X connect 79 0 78 0;
#X connect 80 0 2 0;
#X connect 80 1 14 0;
#X connect 80 2 81 0;
#X connect 81 0 82 0;
#X connect 81 1 83 0;
#X connect 82 0 85 0;
#X connect 83 0 84 0;
#X connect 84 0 85 1;
#X connect 86 0 87 0;
#X connect 87 0 88 0;
#X connect 88 0 44 0;
#X connect 89 0 59 0;
#X connect 89 1 83 1;
#X connect 89 1 15 1;
#X connect 90 0 46 0;
#X connect 90 1 91 0;
#X connect 91 0 40 0;
#X connect 92 0 94 0;
#X connect 93 0 95 0;
#X connect 94 0 96 0;
#X connect 95 0 96 0;
#X connect 96 0 17 0;
#X connect 97 0 96 0;
#X connect 98 0 101 0;
#X connect 99 0 100 0;
#X connect 100 0 97 0;
#X connect 101 0 102 0;
#X connect 102 0 99 0;
#X connect 104 0 2 0;
#X connect 104 1 14 0;
#X connect 104 2 81 0;
#X connect 104 3 106 0;
#X connect 104 4 103 0;
#X connect 106 0 105 0;
#X connect 106 1 105 1;
#X coords 0 -1 1 1 463 70 1 13 20;
